<svg id="Capa_1" enable-background="new 0 0 512 512" height="512" viewBox="0 0 512 512" width="512" xmlns="http://www.w3.org/2000/svg"><g><g><path d="m476 386.949c22.855-38.315 36-83.094 36-130.949 0-141.385-114.615-256-256-256s-256 114.615-256 256c0 47.855 13.145 92.634 36 130.949z" fill="#ffdd40"/></g><g><path d="m436 438.03c15.39-15.22 28.86-32.37 40-51.07v-306.96c0-11.05-8.95-20-20-20h-320c-11.05 0-20 8.95-20 20v232.791z" fill="#d3dcfb"/></g><g><path d="m416 30h-320c-11.05 0-20 8.95-20 20v247.136l319.996 173.202c14.405-9.427 27.812-20.253 40.004-32.308v-388.03c0-11.05-8.95-20-20-20z" fill="#bec8f7"/></g><g><path d="m89.318 230.026 75.093 21.184c4.043 1.14 8.367-.367 10.825-3.773l58.772-81.461c2.354-3.262 6.433-4.797 10.353-3.894l139.395 32.093c6.265 1.442 12.244-3.316 12.244-9.745v-164.43c0-11.046-8.954-20-20-20h-320c-11.046 0-20 8.954-20 20v229.618c0 8.69 10.32 13.244 16.739 7.388l27.124-24.744c2.554-2.329 6.129-3.175 9.455-2.236z" fill="#e9efff"/></g><g><path d="m76 0h300.001-.001-320c-11.046 0-20 8.954-20 20v229.618c0 8.69 10.32 13.244 16.739 7.388l23.261-21.219z" fill="#d3dcfb"/></g><g><path d="m390.334 271.01-122.605-58.957c-4.082-1.963-8.973-.937-11.923 2.5l-72.682 84.705c-2.892 3.37-7.66 4.43-11.707 2.601l-76.412-34.531c-3.051-1.379-6.589-1.139-9.426.638l-44.887 28.112c-2.919 1.828-4.692 5.031-4.692 8.475v82.397c44.669 74.883 126.47 125.05 220 125.05 51.676 0 99.766-15.326 140-41.659v-190.319c0-3.843-2.203-7.347-5.666-9.012z" fill="#e9efff"/></g><g><path d="m76 274.851v-.887l-35.308 22.113c-2.919 1.828-4.692 5.031-4.692 8.475v82.397c44.669 74.884 126.47 125.051 220 125.051 51.676 0 99.766-15.326 140-41.659h-124.51c-107.966 0-195.49-87.524-195.49-195.49z" fill="#d3dcfb"/></g><g><g><path d="m318.5 344.496h-205c-4.142 0-7.5-3.358-7.5-7.5 0-4.142 3.358-7.5 7.5-7.5h205c4.142 0 7.5 3.358 7.5 7.5 0 4.142-3.358 7.5-7.5 7.5z" fill="#bec8f7"/></g><g><path d="m318.5 389.496h-205c-4.142 0-7.5-3.358-7.5-7.5 0-4.142 3.358-7.5 7.5-7.5h205c4.142 0 7.5 3.358 7.5 7.5 0 4.142-3.358 7.5-7.5 7.5z" fill="#bec8f7"/></g><g><path d="m318.5 434.496h-205c-4.142 0-7.5-3.358-7.5-7.5 0-4.142 3.358-7.5 7.5-7.5h205c4.142 0 7.5 3.358 7.5 7.5 0 4.142-3.358 7.5-7.5 7.5z" fill="#bec8f7"/></g></g><g><g><path d="m318.5 75h-205c-4.142 0-7.5-3.358-7.5-7.5 0-4.142 3.358-7.5 7.5-7.5h205c4.142 0 7.5 3.358 7.5 7.5 0 4.142-3.358 7.5-7.5 7.5z" fill="#bec8f7"/></g><g><path d="m318.5 120h-205c-4.142 0-7.5-3.358-7.5-7.5 0-4.142 3.358-7.5 7.5-7.5h205c4.142 0 7.5 3.358 7.5 7.5 0 4.142-3.358 7.5-7.5 7.5z" fill="#bec8f7"/></g><g><path d="m181.755 165h-68.255c-4.142 0-7.5-3.358-7.5-7.5 0-4.142 3.358-7.5 7.5-7.5h68.255c4.142 0 7.5 3.358 7.5 7.5 0 4.142-3.358 7.5-7.5 7.5z" fill="#bec8f7"/></g></g><g><circle cx="366" cy="228.116" fill="#ff4155" r="90"/></g><g><path d="m322.82 228.116c0-41.607 28.236-76.614 66.59-86.918-7.465-2.006-15.311-3.082-23.41-3.082-49.706 0-90 40.294-90 90s40.294 90 90 90c8.099 0 15.945-1.076 23.41-3.082-38.354-10.305-66.59-45.311-66.59-86.918z" fill="#e80054"/></g><g><path d="m387.213 228.116 21.213-21.213c5.858-5.858 5.858-15.355 0-21.213s-15.355-5.858-21.213 0l-21.213 21.213-21.213-21.213c-5.858-5.858-15.355-5.858-21.213 0s-5.858 15.355 0 21.213l21.213 21.213-21.213 21.213c-5.858 5.858-5.858 15.355 0 21.213s15.355 5.858 21.213 0l21.213-21.213 21.213 21.213c5.858 5.858 15.355 5.858 21.213 0s5.858-15.355 0-21.213z" fill="#fff"/></g></g></svg>